<?xml version="1.0" encoding="utf-8"?>
<!-- Generator: Adobe Illustrator 15.0.2, SVG Export Plug-In . SVG Version: 6.00 Build 0)  -->
<!DOCTYPE svg PUBLIC "-//W3C//DTD SVG 1.1//EN" "http://www.w3.org/Graphics/SVG/1.1/DTD/svg11.dtd">
<svg version="1.1" id="Layer_1" xmlns="http://www.w3.org/2000/svg" xmlns:xlink="http://www.w3.org/1999/xlink" x="0px" y="0px"
	 width="42px" height="42px" viewBox="0 0 42 42" enable-background="new 0 0 42 42" xml:space="preserve">
<path fill="#FFFFFF" d="M36.166,0H5.833C2.611,0,0,2.611,0,5.833v30.333C0,39.389,2.611,42,5.833,42h30.333
	C39.388,42,42,39.389,42,36.166V5.833C42,2.611,39.388,0,36.166,0z M33.253,15.332l-0.367,4.786h-4.909V36.75h-6.201V20.118h-3.31
	v-4.786h3.31V13.83v-1.47v-0.246c0-1.416,0.037-3.604,1.066-4.958c1.084-1.434,2.573-2.408,5.135-2.408
	c4.173,0,5.932,0.595,5.932,0.595l-0.827,4.903c0,0-1.379-0.398-2.666-0.398c-1.286,0-2.438,0.459-2.438,1.746v0.521v1.716v1.502
	H33.253z"/>
</svg>
