<?xml version="1.0" encoding="utf-8"?>
<!-- Generator: Adobe Illustrator 15.0.2, SVG Export Plug-In . SVG Version: 6.00 Build 0)  -->
<!DOCTYPE svg PUBLIC "-//W3C//DTD SVG 1.1//EN" "http://www.w3.org/Graphics/SVG/1.1/DTD/svg11.dtd">
<svg version="1.1" id="Layer_1" xmlns="http://www.w3.org/2000/svg" xmlns:xlink="http://www.w3.org/1999/xlink" x="0px" y="0px"
	 width="42px" height="42px" viewBox="0 0 42 42" enable-background="new 0 0 42 42" xml:space="preserve">
<path fill="#FFFFFF" d="M14.35,25.23c-3.165-0.034-5.999,1.929-5.999,4.287c0,2.407,2.285,4.409,5.45,4.409
	c4.449,0,6.001-1.88,6.001-4.285c0-0.291-0.037-0.575-0.103-0.851c-0.348-1.362-1.579-2.037-3.297-3.232
	C15.777,25.357,15.088,25.238,14.35,25.23z"/>
<path fill="#FFFFFF" d="M36.166,0H5.833C2.611,0,0,2.611,0,5.833v30.333C0,39.389,2.611,42,5.833,42h30.333
	C39.388,42,42,39.389,42,36.166V5.833C42,2.611,39.388,0,36.166,0z M20.778,14.717c0,1.742-0.965,3.24-2.329,4.306
	c-1.33,1.039-1.582,1.475-1.582,2.358c0,0.754,1.425,2.037,2.17,2.564c2.178,1.54,2.883,2.97,2.883,5.359
	c0,2.979-2.883,5.938-8.103,5.938c-4.579,0-8.442-1.861-8.442-4.84c0-3.023,3.524-5.939,8.104-5.939
	c0.498,0,0.955-0.015,1.429-0.015c-0.626-0.609-1.122-1.357-1.122-2.277c0-0.547,0.175-1.073,0.419-1.54
	c-0.249,0.019-0.503,0.022-0.766,0.022c-3.76,0-6.28-2.675-6.28-5.989c0-3.245,3.48-6.046,7.176-6.046c2.062,0,8.245,0,8.245,0
	l-1.845,1.335H18.12C19.854,10.62,20.778,12.643,20.778,14.717z M36.887,15.289h-5.335v5.335h-1.333v-5.335h-5.336v-1.334h5.336
	V8.619h1.333v5.336h5.335V15.289z"/>
<path fill="#FFFFFF" d="M13.304,9.787c-2.124-0.062-3.549,2.072-3.182,4.861c0.366,2.79,2.386,5.103,4.511,5.166
	c2.123,0.062,3.548-2.146,3.182-4.936C17.448,12.09,15.428,9.851,13.304,9.787z"/>
</svg>
