<?xml version="1.0" encoding="utf-8"?>
<!-- Generator: Adobe Illustrator 15.0.2, SVG Export Plug-In . SVG Version: 6.00 Build 0)  -->
<!DOCTYPE svg PUBLIC "-//W3C//DTD SVG 1.1//EN" "http://www.w3.org/Graphics/SVG/1.1/DTD/svg11.dtd">
<svg version="1.1" id="Layer_1" xmlns="http://www.w3.org/2000/svg" xmlns:xlink="http://www.w3.org/1999/xlink" x="0px" y="0px"
	 width="42px" height="42px" viewBox="0 0 42 42" enable-background="new 0 0 42 42" xml:space="preserve">
<path fill="#FFFFFF" d="M36.166,0H5.833C2.611,0,0,2.611,0,5.833v30.333C0,39.389,2.611,42,5.833,42h30.333
	C39.389,42,42,39.389,42,36.166V5.833C42,2.611,39.389,0,36.166,0z M21.604,28.312c2.126,0.123,4.369,0.056,4.911,0.056
	c2.738-0.357,4.78,0.942,4.898,3.891c0,1.069-0.383,1.984-1.145,2.747c-0.919,0.749-2.195,1.019-3.69,0.999
	c-2.232,0-5.827,0.317-9.384-0.384c-1.291-0.254-3.121-1.385-3.854-1.897c-2.78-1.944-4.645-5.34-4.645-8.871V9.336
	c0.064-2.356,1.663-3.842,3.754-3.892c1.067,0,1.984,0.382,2.747,1.145c0.763,0.764,1.145,1.68,1.145,2.747v3.891h11.059
	c5.245,0,5.685,7.591,0,7.591H16.294v4.034C16.791,28.004,19.133,28.449,21.604,28.312z"/>
</svg>
